<svg xmlns="http://www.w3.org/2000/svg" id="Sportstech_Logo_red-black_RGB" data-name="Sportstech_Logo_red-black_RGB" viewBox="0 0 290 45"><defs><style>.cls-1{fill:#25282a;}.cls-2{fill:#e4002b;}</style></defs><path class="cls-1" d="M181.44,20.26c-3.65-.56-5-.75-4.86-1.77S178,17,180.27,17a14.92,14.92,0,0,1,8.24,2.16l3.22-2.83c-1.5-2-5.19-3.67-9.91-3.67-6.22,0-10.07,2.84-10.7,6.38-.66,3.75,3.1,4.8,6.62,5.36s5.73.75,5.5,2.06c-.18,1.05-1.58,1.66-4.1,1.69-3.62,0-7.62-1.18-9.16-2.74l-3.1,2.79c1.56,2.42,5.83,4.35,11.08,4.35,6.28,0,10.38-2.9,11-6.7C189.73,21.73,185.25,20.85,181.44,20.26Z"></path><path class="cls-1" d="M86.28,13H74.46l-6.1,19.25h5.25l2-6.14H83c5.3,0,8.76-3.06,9.46-7S90.6,13,86.28,13Zm1,6.33c-.23,1.31-1.61,2.41-3.56,2.41H76.94l1.36-4.35H85C86.66,17.36,87.47,18.12,87.26,19.3Z"></path><path class="cls-1" d="M108.83,12.65c-7.32,0-13,5-14,10.59-.94,5.3,2.84,9.3,9.35,9.3,7.32,0,13-5,14-10.59C119.09,16.64,115.34,12.65,108.83,12.65Zm3.89,9.57A7.41,7.41,0,0,1,105.21,28c-3.4,0-5.49-2-4.95-5a7.42,7.42,0,0,1,7.5-5.77C111.19,17.2,113.25,19.21,112.72,22.22Z"></path><path class="cls-1" d="M137,13H125.28l-6.1,19.25h5.26l2-6.38h5.3L134,32.22h5.81l-2.57-6.84a8.33,8.33,0,0,0,6.28-6.46C144.17,15.33,141.82,13,137,13Zm1.27,6.35h0c-.23,1.29-1.54,2.36-3.55,2.36h-7l1.35-4.32h6.81C137.75,17.36,138.49,18.17,138.29,19.32Z"></path><polygon class="cls-1" points="148.39 12.97 146.96 17.42 155.06 17.42 150.38 32.22 155.64 32.22 160.31 17.42 168.4 17.42 169.83 12.97 148.39 12.97"></polygon><polygon class="cls-1" points="195.73 12.97 194.3 17.42 202.4 17.42 197.72 32.22 202.98 32.22 207.65 17.42 215.74 17.42 217.17 12.97 195.73 12.97"></polygon><polygon class="cls-1" points="238.61 17.42 240.04 12.97 221.32 12.97 215.22 32.22 233.94 32.22 235.34 27.77 221.8 27.77 222.78 24.63 236.31 24.63 237.69 20.29 224.16 20.29 225.07 17.42 238.61 17.42"></polygon><polygon class="cls-1" points="284.75 12.97 282.45 20.23 271.86 20.23 274.19 12.97 268.93 12.97 262.83 32.22 268.08 32.22 270.49 24.66 281.05 24.66 278.64 32.22 283.9 32.22 290 12.97 284.75 12.97"></polygon><path class="cls-1" d="M250.31,28c-3.19-.13-5.46-1.88-4.91-5a6.28,6.28,0,0,1,.46-1.47c1.1-2.48,3.78-4.11,7-4.3a5.5,5.5,0,0,1,5.45,2.95l5.09-2.5c-.93-3-4.52-5-9.44-5a14.85,14.85,0,0,0-12,5.94,11.39,11.39,0,0,0-2,4.64,7.29,7.29,0,0,0,2,6.74A7.57,7.57,0,0,0,244,31.41a11.9,11.9,0,0,0,5.32,1.13,15.17,15.17,0,0,0,7.54-1.67,14,14,0,0,0,4.72-3.94l-4.12-2.33A7.87,7.87,0,0,1,250.31,28Z"></path><path class="cls-1" d="M58.76,20.26c-3.66-.56-5-.75-4.87-1.77s1.39-1.5,3.7-1.5a14.94,14.94,0,0,1,8.24,2.16l3.22-2.83c-1.5-2-5.2-3.67-9.92-3.67-6.22,0-10.07,2.84-10.69,6.38-.66,3.75,3.09,4.8,6.61,5.36s5.74.75,5.51,2.06c-.19,1.05-1.58,1.66-4.11,1.69-3.61,0-7.61-1.18-9.15-2.74l-3.1,2.79c1.55,2.42,5.82,4.35,11.08,4.35,6.27,0,10.37-2.9,11-6.71C67.05,21.73,62.57,20.85,58.76,20.26Z"></path><path class="cls-2" d="M3.11,14.63A6.22,6.22,0,1,0,9.33,25.4L33.11,11.68A6.22,6.22,0,0,0,26.89.9Z"></path><path class="cls-2" d="M3.11,33.41A6.22,6.22,0,0,0,9.33,44.18L23.52,36A6.22,6.22,0,1,0,17.3,25.22h0Z"></path></svg>